<svg xmlns="http://www.w3.org/2000/svg" xmlns:xlink="http://www.w3.org/1999/xlink" version="1.1" id="Layer_1" x="0px" y="0px" viewBox="0 0 24 24" enable-background="new 0 0 24 24" xml:space="preserve"><style type="text/css">circle,ellipse,line,path,polygon,polyline,rect,text{fill:#d3dbe2 !important; }</style><path id="Camera" fill="#666B6D" d="M21,4h-2.6c-0.4,0-0.8-0.4-1-0.7l-1-1.6c-0.3-0.4-1-0.7-1.5-0.7H9.1C8.6,1,7.9,1.3,7.6,1.8  L6.5,3.4C6.4,3.8,6,4,5.6,4H3C1.3,4,0,5.3,0,7v12c0,1.6,1.3,3,3,3h18c1.7,0,3-1.4,3-3V7C24,5.3,22.7,4,21,4z M12,17  c-2.8,0-5-2.2-5-5s2.2-5,5-5s5,2.2,5,5S14.8,17,12,17z"/></svg>